<svg width="25" height="26" viewBox="0 0 25 26" fill="none" xmlns="http://www.w3.org/2000/svg">
<path d="M14.5791 6.19966C14.7691 6.20117 14.9585 6.27268 15.1073 6.42387L21.1289 12.5419C21.4166 12.8342 21.4128 13.3142 21.1205 13.6018L15.0025 19.6235C14.7102 19.9111 14.2302 19.9073 13.9425 19.615C13.6549 19.3227 13.6587 18.8428 13.951 18.5551L19.5348 13.0592L14.0389 7.47541C13.7513 7.18312 13.7551 6.70314 14.0474 6.41545C14.1885 6.26657 14.3891 6.19816 14.5791 6.19966Z" fill="#AEAEB2"/>
<path d="M3.60043 12.1825L20.4299 12.3161C20.8399 12.3194 21.1772 12.6621 21.1739 13.072C21.1707 13.482 20.828 13.8193 20.418 13.8161L3.58852 13.6824C3.17854 13.6792 2.84125 13.3365 2.8445 12.9265C2.84776 12.5165 3.19045 12.1792 3.60043 12.1825Z" fill="#AEAEB2"/>
</svg>
