<svg width="24" height="24" viewBox="0 0 36 36" fill="none" xmlns="http://www.w3.org/2000/svg">
<path d="M17.9998 28.75C17.3998 28.75 16.8098 28.61 16.3298 28.34L11.5998 25.61C9.63977 24.29 9.50977 24.05 9.50977 21.98V17.02C9.50977 14.95 9.63977 14.71 11.5598 13.42L16.3398 10.66C17.2898 10.11 18.7198 10.11 19.6698 10.66L24.3998 13.39C26.3598 14.71 26.4898 14.95 26.4898 17.02V21.98C26.4898 24.05 26.3598 24.29 24.4398 25.58L19.6598 28.34C19.1898 28.62 18.5898 28.75 17.9998 28.75ZM17.9998 11.75C17.6598 11.75 17.3198 11.82 17.0798 11.96L12.3498 14.69C11.0098 15.6 11.0098 15.6 11.0098 17.02V21.98C11.0098 23.4 11.0098 23.4 12.3998 24.34L17.0898 27.04C17.5698 27.32 18.4398 27.32 18.9198 27.04L23.6498 24.31C24.9898 23.4 24.9898 23.4 24.9898 21.98V17.02C24.9898 15.6 24.9898 15.6 23.5998 14.66L18.9098 11.96C18.6798 11.82 18.3398 11.75 17.9998 11.75Z" fill="#064BB4"/>
<path d="M23.5 14.38C23.09 14.38 22.75 14.04 22.75 13.63V11C22.75 9.42 22.08 8.75 20.5 8.75H15.5C13.92 8.75 13.25 9.42 13.25 11V13.56C13.25 13.97 12.91 14.31 12.5 14.31C12.09 14.31 11.75 13.98 11.75 13.56V11C11.75 8.58 13.08 7.25 15.5 7.25H20.5C22.92 7.25 24.25 8.58 24.25 11V13.63C24.25 14.04 23.91 14.38 23.5 14.38Z" fill="#064BB4"/>
<path d="M19.6302 23.63C19.4202 23.63 19.2002 23.59 18.9802 23.5L18.0002 23.12L17.0202 23.51C16.4902 23.72 15.9502 23.67 15.5502 23.38C15.1502 23.09 14.9402 22.59 14.9702 22.02L15.0302 20.97L14.3602 20.16C14.0002 19.71 13.8802 19.19 14.0402 18.71C14.1902 18.24 14.6002 17.88 15.1502 17.74L16.1702 17.48L16.7402 16.59C17.3502 15.63 18.6602 15.63 19.2702 16.59L19.8402 17.48L20.8602 17.74C21.4102 17.88 21.8202 18.24 21.9702 18.71C22.1202 19.18 22.0002 19.71 21.6402 20.15L20.9702 20.96L21.0302 22.01C21.0602 22.58 20.8502 23.07 20.4502 23.37C20.2102 23.54 19.9302 23.63 19.6302 23.63ZM15.5202 19.2L16.1902 20.01C16.4202 20.28 16.5502 20.71 16.5302 21.06L16.4702 22.11L17.4502 21.72C17.7802 21.59 18.2202 21.59 18.5502 21.72L19.5302 22.11L19.4702 21.06C19.4502 20.71 19.5802 20.29 19.8102 20.01L20.4802 19.2L19.4602 18.94C19.1202 18.85 18.7602 18.59 18.5702 18.3L18.0102 17.42L17.4402 18.3C17.2502 18.6 16.8902 18.86 16.5502 18.95L15.5202 19.2Z" fill="#064BB4"/>
<rect x="0.5" y="0.5" width="35" height="35" rx="17.5" stroke="#E9EBED"/>
</svg>
