<svg width="24" height="24" viewBox="0 0 36 36" fill="none" xmlns="http://www.w3.org/2000/svg">
<path d="M14 11.75C13.59 11.75 13.25 11.41 13.25 11V8C13.25 7.59 13.59 7.25 14 7.25C14.41 7.25 14.75 7.59 14.75 8V11C14.75 11.41 14.41 11.75 14 11.75Z" fill="#064BB4"/>
<path d="M22 11.75C21.59 11.75 21.25 11.41 21.25 11V8C21.25 7.59 21.59 7.25 22 7.25C22.41 7.25 22.75 7.59 22.75 8V11C22.75 11.41 22.41 11.75 22 11.75Z" fill="#064BB4"/>
<path d="M14.5 20.5C14.37 20.5 14.24 20.47 14.12 20.42C13.99 20.37 13.89 20.3 13.79 20.21C13.61 20.02 13.5 19.77 13.5 19.5C13.5 19.37 13.53 19.24 13.58 19.12C13.63 19 13.7 18.89 13.79 18.79C13.89 18.7 13.99 18.63 14.12 18.58C14.48 18.43 14.93 18.51 15.21 18.79C15.39 18.98 15.5 19.24 15.5 19.5C15.5 19.56 15.49 19.63 15.48 19.7C15.47 19.76 15.45 19.82 15.42 19.88C15.4 19.94 15.37 20 15.33 20.06C15.3 20.11 15.25 20.16 15.21 20.21C15.02 20.39 14.76 20.5 14.5 20.5Z" fill="#064BB4"/>
<path d="M18 20.5C17.87 20.5 17.74 20.47 17.62 20.42C17.49 20.37 17.39 20.3 17.29 20.21C17.11 20.02 17 19.77 17 19.5C17 19.37 17.03 19.24 17.08 19.12C17.13 19 17.2 18.89 17.29 18.79C17.39 18.7 17.49 18.63 17.62 18.58C17.98 18.42 18.43 18.51 18.71 18.79C18.89 18.98 19 19.24 19 19.5C19 19.56 18.99 19.63 18.98 19.7C18.97 19.76 18.95 19.82 18.92 19.88C18.9 19.94 18.87 20 18.83 20.06C18.8 20.11 18.75 20.16 18.71 20.21C18.52 20.39 18.26 20.5 18 20.5Z" fill="#064BB4"/>
<path d="M21.5 20.5C21.37 20.5 21.24 20.47 21.12 20.42C20.99 20.37 20.89 20.3 20.79 20.21C20.75 20.16 20.71 20.11 20.67 20.06C20.63 20 20.6 19.94 20.58 19.88C20.55 19.82 20.53 19.76 20.52 19.7C20.51 19.63 20.5 19.56 20.5 19.5C20.5 19.24 20.61 18.98 20.79 18.79C20.89 18.7 20.99 18.63 21.12 18.58C21.49 18.42 21.93 18.51 22.21 18.79C22.39 18.98 22.5 19.24 22.5 19.5C22.5 19.56 22.49 19.63 22.48 19.7C22.47 19.76 22.45 19.82 22.42 19.88C22.4 19.94 22.37 20 22.33 20.06C22.3 20.11 22.25 20.16 22.21 20.21C22.02 20.39 21.76 20.5 21.5 20.5Z" fill="#064BB4"/>
<path d="M14.5 24C14.37 24 14.24 23.97 14.12 23.92C14 23.87 13.89 23.8 13.79 23.71C13.61 23.52 13.5 23.26 13.5 23C13.5 22.87 13.53 22.74 13.58 22.62C13.63 22.49 13.7 22.38 13.79 22.29C14.16 21.92 14.84 21.92 15.21 22.29C15.39 22.48 15.5 22.74 15.5 23C15.5 23.26 15.39 23.52 15.21 23.71C15.02 23.89 14.76 24 14.5 24Z" fill="#064BB4"/>
<path d="M18 24C17.74 24 17.48 23.89 17.29 23.71C17.11 23.52 17 23.26 17 23C17 22.87 17.03 22.74 17.08 22.62C17.13 22.49 17.2 22.38 17.29 22.29C17.66 21.92 18.34 21.92 18.71 22.29C18.8 22.38 18.87 22.49 18.92 22.62C18.97 22.74 19 22.87 19 23C19 23.26 18.89 23.52 18.71 23.71C18.52 23.89 18.26 24 18 24Z" fill="#064BB4"/>
<path d="M21.5 24C21.24 24 20.98 23.89 20.79 23.71C20.7 23.62 20.63 23.51 20.58 23.38C20.53 23.26 20.5 23.13 20.5 23C20.5 22.87 20.53 22.74 20.58 22.62C20.63 22.49 20.7 22.38 20.79 22.29C21.02 22.06 21.37 21.95 21.69 22.02C21.76 22.03 21.82 22.05 21.88 22.08C21.94 22.1 22 22.13 22.06 22.17C22.11 22.2 22.16 22.25 22.21 22.29C22.39 22.48 22.5 22.74 22.5 23C22.5 23.26 22.39 23.52 22.21 23.71C22.02 23.89 21.76 24 21.5 24Z" fill="#064BB4"/>
<path d="M26.5 15.84H9.5C9.09 15.84 8.75 15.5 8.75 15.09C8.75 14.68 9.09 14.34 9.5 14.34H26.5C26.91 14.34 27.25 14.68 27.25 15.09C27.25 15.5 26.91 15.84 26.5 15.84Z" fill="#064BB4"/>
<path d="M22 28.75H14C10.35 28.75 8.25 26.65 8.25 23V14.5C8.25 10.85 10.35 8.75 14 8.75H22C25.65 8.75 27.75 10.85 27.75 14.5V23C27.75 26.65 25.65 28.75 22 28.75ZM14 10.25C11.14 10.25 9.75 11.64 9.75 14.5V23C9.75 25.86 11.14 27.25 14 27.25H22C24.86 27.25 26.25 25.86 26.25 23V14.5C26.25 11.64 24.86 10.25 22 10.25H14Z" fill="#064BB4"/>
<rect x="0.5" y="0.5" width="35" height="35" rx="17.5" stroke="#E9EBED"/>
</svg>
