<svg width="40" height="40" viewBox="0 0 40 40" fill="none" xmlns="http://www.w3.org/2000/svg">
<path fill-rule="evenodd" clip-rule="evenodd" d="M14.0582 30.6024C15.0102 30.6024 15.7849 31.3757 15.7849 32.3277C15.7849 33.2797 15.0102 34.0544 14.0582 34.0544C13.1062 34.0544 12.3328 33.2797 12.3328 32.3277C12.3328 31.3757 13.1062 30.6024 14.0582 30.6024ZM29.0986 30.6024C30.0519 30.6024 30.8266 31.3757 30.8266 32.3277C30.8266 33.2797 30.0519 34.0544 29.0986 34.0544C28.1466 34.0544 27.3733 33.2797 27.3733 32.3277C27.3733 31.3757 28.1466 30.6024 29.0986 30.6024ZM8.35712 8.01253L11.1305 8.49253C11.5771 8.57119 11.9171 8.94186 11.9558 9.39519L12.2691 13.1299L13.4343 13.1304C13.6244 13.1304 13.8125 13.1305 13.9986 13.1306L16.1377 13.1316C16.3082 13.1317 16.4768 13.1318 16.6435 13.1319L19.0054 13.1332C19.1537 13.1333 19.3003 13.1334 19.4452 13.1334L21.1003 13.1345C21.2314 13.1346 21.3609 13.1347 21.4887 13.1348L22.9444 13.1358C23.0594 13.1359 23.1727 13.136 23.2846 13.1361L24.5538 13.1372C24.6537 13.1373 24.752 13.1374 24.849 13.1375L25.6832 13.1383C25.7717 13.1384 25.8588 13.1385 25.9446 13.1386L26.9107 13.1397C26.9861 13.1398 27.0601 13.1399 27.133 13.14L27.9487 13.1411C28.0119 13.1412 28.074 13.1413 28.1349 13.1414L28.6533 13.1423C28.7077 13.1424 28.7609 13.1425 28.8131 13.1426L29.3906 13.1437C29.4348 13.1438 29.478 13.1439 29.5202 13.144L29.8756 13.1449C29.9124 13.145 29.9483 13.1451 29.9834 13.1452L30.3644 13.1464C30.3929 13.1465 30.4207 13.1466 30.4478 13.1467L30.6715 13.1476C30.6942 13.1477 30.7163 13.1478 30.7377 13.1479L30.964 13.1492C30.9804 13.1493 30.9963 13.1494 31.0116 13.1495L31.1349 13.1504C31.1471 13.1505 31.1588 13.1506 31.17 13.1507L31.2588 13.1517C31.2674 13.1518 31.2755 13.1519 31.2833 13.152L31.3437 13.153C31.3494 13.1531 31.3548 13.1532 31.3599 13.1533L31.3981 13.1542C31.4016 13.1544 31.4048 13.1545 31.4079 13.1546L31.4356 13.1559C31.4373 13.156 31.4388 13.1561 31.4403 13.1562C31.4533 13.1574 31.4552 13.1576 31.4571 13.1579C32.1998 13.2659 32.8531 13.6539 33.2985 14.2512C33.7438 14.8472 33.9305 15.5819 33.8238 16.3179L32.5584 25.0619C32.3198 26.7259 30.8745 27.9805 29.1945 27.9805H14.6331C12.8771 27.9805 11.3905 26.6099 11.2478 24.8565L10.0265 10.3312L8.01712 9.98453C7.47178 9.88853 7.10778 9.37253 7.20112 8.82719C7.29712 8.28186 7.82378 7.92719 8.35712 8.01253ZM13.1668 15.1303L12.4371 15.1299L13.2411 24.6925C13.2998 25.4285 13.9011 25.9805 14.6358 25.9805H29.1918C29.8864 25.9805 30.4798 25.4632 30.5785 24.7765L31.8451 16.0312C31.8745 15.8232 31.8225 15.6152 31.6958 15.4472C31.5704 15.2779 31.3864 15.1685 31.1784 15.1392C31.1688 15.1396 31.1458 15.1399 31.11 15.1402L30.965 15.141C30.9347 15.1412 30.9013 15.1413 30.865 15.1414L30.1096 15.1425C30.0459 15.1426 29.9797 15.1426 29.9109 15.1426L28.135 15.1426C28.0359 15.1425 27.9349 15.1425 27.8321 15.1425L25.8053 15.1412C25.6839 15.1411 25.5611 15.141 25.4371 15.1409L24.2903 15.14C24.1597 15.1399 24.028 15.1398 23.8955 15.1397L22.6808 15.1386C22.5436 15.1385 22.4057 15.1384 22.2673 15.1383L21.4305 15.1375C21.2901 15.1374 21.1493 15.1372 21.0082 15.1371L19.7312 15.1359C19.5889 15.1358 19.4464 15.1356 19.3039 15.1355L18.4497 15.1347C18.3076 15.1346 18.1656 15.1344 18.0238 15.1343L17.1769 15.1335C17.0364 15.1334 16.8964 15.1333 16.7568 15.1332L15.5162 15.1321C15.3803 15.132 15.2451 15.1319 15.1107 15.1318L13.5428 15.1306C13.4163 15.1305 13.2909 15.1304 13.1668 15.1303ZM27.0503 18.0583C27.6023 18.0583 28.0503 18.5063 28.0503 19.0583C28.0503 19.6103 27.6023 20.0583 27.0503 20.0583H23.3543C22.801 20.0583 22.3543 19.6103 22.3543 19.0583C22.3543 18.5063 22.801 18.0583 23.3543 18.0583H27.0503Z" fill="white"/>
<circle cx="34" cy="14" r="6" fill="#FF4747"/>
</svg>
