<svg width="23" height="23" viewBox="0 0 28 28" fill="none" xmlns="http://www.w3.org/2000/svg">
<g clip-path="url(#clip0_119_1185)">
<path d="M12.4738 13.5267C12.3482 13.4012 12.178 13.3306 12.0004 13.3306C11.8229 13.3306 11.6527 13.4012 11.5271 13.5267C11.4016 13.6522 11.3311 13.8225 11.3311 14C11.3311 14.1776 11.4016 14.3478 11.5271 14.4734L13.5271 16.4734C13.5894 16.5352 13.6633 16.584 13.7445 16.6172C13.8257 16.6504 13.9127 16.6672 14.0004 16.6667C14.0917 16.6638 14.1814 16.6422 14.264 16.6032C14.3466 16.5642 14.4202 16.5087 14.4804 16.44L19.1471 11.1067C19.2549 10.9729 19.3068 10.8027 19.2921 10.6316C19.2775 10.4604 19.1973 10.3015 19.0683 10.188C18.9394 10.0746 18.7716 10.0152 18.6 10.0224C18.4283 10.0296 18.2661 10.1028 18.1471 10.2267L14.0004 15.0267L12.4738 13.5267Z" fill="#BCFF5E"/>
<path d="M20.0002 13.3334C19.8234 13.3334 19.6538 13.4036 19.5288 13.5286C19.4038 13.6537 19.3335 13.8232 19.3335 14C19.3335 15.4145 18.7716 16.7711 17.7714 17.7713C16.7712 18.7715 15.4147 19.3334 14.0002 19.3334C12.9469 19.3329 11.9174 19.0205 11.0414 18.4357C10.1654 17.8509 9.48215 17.0198 9.07785 16.0472C8.67356 15.0746 8.5663 14.0041 8.76959 12.9706C8.97289 11.9372 9.47764 10.987 10.2202 10.24C10.714 9.73963 11.3027 9.34274 11.9517 9.07258C12.6008 8.80243 13.2972 8.66445 14.0002 8.66671C14.4265 8.66938 14.8512 8.71856 15.2669 8.81337C15.3538 8.84028 15.4454 8.84908 15.5359 8.83924C15.6264 8.8294 15.714 8.80113 15.7931 8.75616C15.8723 8.71119 15.9414 8.65049 15.9962 8.57779C16.051 8.50509 16.0904 8.42193 16.1118 8.33345C16.1332 8.24497 16.1363 8.15303 16.1209 8.06331C16.1054 7.97359 16.0717 7.88798 16.0219 7.81177C15.9721 7.73556 15.9072 7.67035 15.8313 7.62018C15.7553 7.57001 15.6698 7.53593 15.5802 7.52004C15.0623 7.3982 14.5322 7.33558 14.0002 7.33337C12.6831 7.34022 11.3975 7.73705 10.3057 8.47381C9.21394 9.21056 8.36485 10.2542 7.86561 11.4731C7.36638 12.6919 7.23937 14.0313 7.50062 15.3223C7.76187 16.6132 8.39967 17.7979 9.33353 18.7267C10.5713 19.9651 12.2493 20.6626 14.0002 20.6667C15.7683 20.6667 17.464 19.9643 18.7142 18.7141C19.9645 17.4638 20.6669 15.7682 20.6669 14C20.6669 13.8232 20.5966 13.6537 20.4716 13.5286C20.3466 13.4036 20.177 13.3334 20.0002 13.3334Z" fill="#BCFF5E"/>
</g>
<rect x="0.5" y="0.5" width="27" height="27" rx="13.5" stroke="#E9EBED" stroke-opacity="0.16"/>
<defs>
<clipPath id="clip0_119_1185">
<rect width="16" height="16" fill="white" transform="translate(6 6)"/>
</clipPath>
</defs>
</svg>
