<svg width="24" height="24" viewBox="0 0 36 36" fill="none" xmlns="http://www.w3.org/2000/svg">
<path d="M18 28.75C12.76 28.75 8.5 24.49 8.5 19.25C8.5 14.01 12.76 9.75 18 9.75C23.24 9.75 27.5 14.01 27.5 19.25C27.5 24.49 23.24 28.75 18 28.75ZM18 11.25C13.59 11.25 10 14.84 10 19.25C10 23.66 13.59 27.25 18 27.25C22.41 27.25 26 23.66 26 19.25C26 14.84 22.41 11.25 18 11.25Z" fill="#064BB4"/>
<path d="M18 19.75C17.59 19.75 17.25 19.41 17.25 19V14C17.25 13.59 17.59 13.25 18 13.25C18.41 13.25 18.75 13.59 18.75 14V19C18.75 19.41 18.41 19.75 18 19.75Z" fill="#064BB4"/>
<path d="M21 8.75H15C14.59 8.75 14.25 8.41 14.25 8C14.25 7.59 14.59 7.25 15 7.25H21C21.41 7.25 21.75 7.59 21.75 8C21.75 8.41 21.41 8.75 21 8.75Z" fill="#064BB4"/>
<rect x="0.5" y="0.5" width="35" height="35" rx="17.5" stroke="#E9EBED"/>
</svg>
