<svg width="48" height="48" viewBox="0 0 48 48" fill="none" xmlns="http://www.w3.org/2000/svg">
<circle cx="35" cy="40" r="8" fill="#BCFF5E"/>
<path d="M26.2229 36.2271C24.8005 37.6517 24.0011 39.5822 24 41.5953V44.0084" stroke="#323232" stroke-width="2" stroke-linecap="round" stroke-linejoin="round"/>
<path d="M21.7773 36.2271C23.1998 37.6517 23.9992 39.5822 24.0003 41.5953V44.0084" stroke="#323232" stroke-width="2" stroke-linecap="round" stroke-linejoin="round"/>
<path d="M34.5048 24.2221C27.7559 26.8891 20.2451 26.8891 13.4961 24.2221" stroke="#323232" stroke-width="2" stroke-linecap="round" stroke-linejoin="round"/>
<path d="M38.0059 16.9971H44.0084" stroke="#323232" stroke-width="2" stroke-linecap="round" stroke-linejoin="round"/>
<path d="M41.0071 19.9983L38.0059 16.9971L41.0071 13.9958" stroke="#323232" stroke-width="2" stroke-linecap="round" stroke-linejoin="round"/>
<path d="M9.99469 16.9971H3.99219" stroke="#323232" stroke-width="2" stroke-linecap="round" stroke-linejoin="round"/>
<path d="M6.99316 13.9958L9.99441 16.9971L6.99316 19.9983" stroke="#323232" stroke-width="2" stroke-linecap="round" stroke-linejoin="round"/>
<path d="M35.1166 3.99164L33.9161 7.30902C31.8474 12.9975 32.2091 19.2865 34.9165 24.7003V24.7003C37.861 30.5911 38.0173 37.4899 35.3427 43.5081L35.1226 44.0063" stroke="#323232" stroke-width="2" stroke-linecap="round" stroke-linejoin="round"/>
<path d="M12.8837 3.99164L14.0842 7.30902C16.1528 12.9975 15.7911 19.2865 13.0837 24.7003V24.7003C10.1392 30.5911 9.98292 37.4899 12.6576 43.5081L12.8777 44.0063" stroke="#323232" stroke-width="2" stroke-linecap="round" stroke-linejoin="round"/>
<path d="M15.0186 10.6605H32.982" stroke="#323232" stroke-width="2" stroke-linecap="round" stroke-linejoin="round"/>
</svg>
