<svg width="36" height="36" viewBox="0 0 36 36" fill="none" xmlns="http://www.w3.org/2000/svg">
<path d="M18 28.75C12.07 28.75 7.25 23.93 7.25 18C7.25 12.07 12.07 7.25 18 7.25C23.93 7.25 28.75 12.07 28.75 18C28.75 23.93 23.93 28.75 18 28.75ZM18 8.75C12.9 8.75 8.75 12.9 8.75 18C8.75 23.1 12.9 27.25 18 27.25C23.1 27.25 27.25 23.1 27.25 18C27.25 12.9 23.1 8.75 18 8.75Z" fill="#FF4747"/>
<path d="M15.1699 21.58C14.9799 21.58 14.7899 21.51 14.6399 21.36C14.3499 21.07 14.3499 20.59 14.6399 20.3L20.2999 14.64C20.5899 14.35 21.0699 14.35 21.3599 14.64C21.6499 14.93 21.6499 15.41 21.3599 15.7L15.6999 21.36C15.5599 21.51 15.3599 21.58 15.1699 21.58Z" fill="#FF4747"/>
<path d="M20.8299 21.58C20.6399 21.58 20.4499 21.51 20.2999 21.36L14.6399 15.7C14.3499 15.41 14.3499 14.93 14.6399 14.64C14.9299 14.35 15.4099 14.35 15.6999 14.64L21.3599 20.3C21.6499 20.59 21.6499 21.07 21.3599 21.36C21.2099 21.51 21.0199 21.58 20.8299 21.58Z" fill="#FF4747"/>
<rect x="0.5" y="0.5" width="35" height="35" rx="17.5" stroke="#E9EBED"/>
</svg>
