<svg width="48" height="48" viewBox="0 0 48 48" fill="none" xmlns="http://www.w3.org/2000/svg">
<circle cx="32" cy="40" r="8" fill="#BCFF5E"/>
<path d="M31.1831 28.768L31.7153 27.9676C33.9581 24.6053 38.1735 23.1598 42.0076 24.4382" stroke="#323232" stroke-width="2" stroke-linecap="round" stroke-linejoin="round"/>
<path d="M20.1286 25.5867L22.5296 13.6137L25.1507 14.9242C26.124 15.4101 27.3066 15.0984 27.9139 14.1959L30.2028 10.7605C30.7743 9.90186 30.6613 8.75945 29.9327 8.02937L27.0515 5.14817C25.7156 3.81196 23.5813 3.71478 22.1295 4.92408C15.3124 10.6045 10.2141 18.0731 7.40735 26.4911L6.20685 30.0645C5.60802 31.8698 6.2574 33.8545 7.80752 34.9566L10.8708 37.1455C16.7823 41.369 24.4378 42.2913 31.1833 39.5925L33.3482 43.9223" stroke="#323232" stroke-width="2" stroke-linecap="round" stroke-linejoin="round"/>
<path d="M31.1833 26.6011C27.2502 23.9798 22.1269 23.9798 18.1938 26.6011" stroke="#323232" stroke-width="2" stroke-linecap="round" stroke-linejoin="round"/>
</svg>
