<svg width="124" height="40" viewBox="0 0 124 40" fill="none" xmlns="http://www.w3.org/2000/svg">
<path fill-rule="evenodd" clip-rule="evenodd" d="M20.4994 9.51392C22.0226 7.68423 24.288 6.63665 26.6686 6.66106C31.9542 6.66106 35.5057 11.6298 35.5057 16.2567C35.5057 25.9291 23.464 33.3388 20.4994 33.3388C17.5348 33.3388 5.49316 25.9291 5.49316 16.2567C5.49316 11.6298 9.04464 6.66106 14.3302 6.66106C16.7108 6.63665 18.9762 7.68423 20.4994 9.51392Z" stroke="#1C1C1E" stroke-width="2" stroke-linecap="round" stroke-linejoin="round"/>
<path d="M23.5908 17.624L19.7292 21.489L17.4082 19.1663" stroke="#1C1C1E" stroke-width="2" stroke-linecap="round" stroke-linejoin="round"/>
<path d="M58.72 23.78C58.72 22.2 57.84 21.06 56.24 20.5C57.52 19.84 58.26 18.78 58.26 17.46C58.26 15 56.4 13.64 53.38 13.64H47.98V28H53.6C56.76 28 58.72 26.44 58.72 23.78ZM53.14 16.04C54.62 16.04 55.38 16.68 55.38 17.7C55.38 18.74 54.62 19.38 53.14 19.38H50.74V16.04H53.14ZM53.36 21.8C55 21.8 55.86 22.52 55.86 23.66C55.86 24.88 55 25.6 53.36 25.6H50.74V21.8H53.36ZM68.4892 23.5C68.4892 24.94 67.5292 25.74 66.5292 25.74C65.4092 25.74 64.6692 25.08 64.6692 23.58V17.32H61.8892V24.12C61.8892 26.9 63.4492 28.2 65.5892 28.2C66.9492 28.2 68.1292 27.54 68.7092 26.6V28H71.2492V17.32H68.4892V23.5ZM77.847 28V13.64H75.047V28H77.847ZM84.42 28V23.04L88.5 28H92.04L87.1 22.44L91.52 17.32H88.32L84.42 21.84V13.64H81.64V28H84.42ZM96.7197 15.02C96.7197 14.42 96.2597 13.98 95.5797 13.98C94.9197 13.98 94.4597 14.42 94.4597 15.02C94.4597 15.64 94.9197 16.08 95.5797 16.08C96.2597 16.08 96.7197 15.64 96.7197 15.02ZM96.2997 28V17.46H94.8997V28H96.2997ZM102.033 21.86C102.033 19.9 103.353 18.48 104.993 18.48C106.713 18.48 107.633 19.62 107.633 21.64V28H109.033V21.16C109.033 18.66 107.613 17.26 105.413 17.26C103.893 17.26 102.613 18.14 101.933 19.44V17.46H100.633V28H102.033V21.86ZM117.261 32.08C120.141 32.08 121.801 30.48 121.801 27.76V17.46H120.501V19.7C119.821 18.16 118.501 17.26 116.921 17.26C114.261 17.26 112.501 19.38 112.501 22.58C112.501 25.78 114.281 27.92 116.941 27.92C118.501 27.92 119.781 27.06 120.421 25.58V27.78C120.421 29.86 119.321 30.96 117.241 30.96C115.361 30.96 114.241 30.04 114.121 28.32H112.781C112.901 30.68 114.581 32.08 117.261 32.08ZM113.901 22.58C113.901 20.02 115.141 18.46 117.141 18.46C119.141 18.46 120.441 20.1 120.441 22.68C120.441 25.12 119.121 26.72 117.141 26.72C115.121 26.72 113.901 25.16 113.901 22.58Z" fill="#1C1C1E"/>
</svg>
