<svg width="65" height="32" viewBox="0 0 65 32" fill="none" xmlns="http://www.w3.org/2000/svg">
<g clip-path="url(#clip0_119_948)">
<path fill-rule="evenodd" clip-rule="evenodd" d="M9.72932 6.02071C5.76264 10.7147 1.95935 16.5357 1.92121 20.8866C1.90635 22.5237 2.42502 23.9529 3.6691 25.0353C5.45955 26.5943 7.43225 27.1441 9.39531 27.1473C12.264 27.1514 15.1127 25.9851 17.3431 25.0859C21.0994 23.5722 62.6221 5.40261 62.6221 5.40261C63.0228 5.20035 62.9477 4.94834 62.4463 5.07414C62.244 5.12511 17.2424 17.4139 17.2424 17.4139C16.3899 17.6568 15.5091 17.7839 14.6233 17.7917C11.1649 17.8123 8.08741 15.8779 8.11229 11.8016C8.12193 10.2066 8.60647 8.28316 9.72932 6.02071Z" fill="white"/>
</g>
<defs>
<clipPath id="clip0_119_948">
<rect width="65" height="32" fill="white"/>
</clipPath>
</defs>
</svg>
