<svg width="24" height="24" viewBox="0 0 36 36" fill="none" xmlns="http://www.w3.org/2000/svg">
<path d="M23.6601 28.67C23.1301 28.67 22.4501 28.5 21.6001 28L18.6101 26.23C18.3001 26.05 17.7001 26.05 17.4001 26.23L14.4001 28C12.6301 29.05 11.5901 28.63 11.1201 28.29C10.6601 27.95 9.94012 27.08 10.4101 25.08L11.1201 22.01C11.2001 21.69 11.0401 21.14 10.8001 20.9L8.32012 18.42C7.08012 17.18 7.18012 16.12 7.35012 15.6C7.52012 15.08 8.06012 14.16 9.78012 13.87L12.9701 13.34C13.2701 13.29 13.7001 12.97 13.8301 12.7L15.6001 9.17001C16.4001 7.56001 17.4501 7.32001 18.0001 7.32001C18.5501 7.32001 19.6001 7.56001 20.4001 9.17001L22.1601 12.69C22.3001 12.96 22.7301 13.28 23.0301 13.33L26.2201 13.86C27.9501 14.15 28.4901 15.07 28.6501 15.59C28.8101 16.11 28.9101 17.17 27.6801 18.41L25.2001 20.9C24.9601 21.14 24.8101 21.68 24.8801 22.01L25.5901 25.08C26.0501 27.08 25.3401 27.95 24.8801 28.29C24.6301 28.47 24.2301 28.67 23.6601 28.67ZM18.0001 24.59C18.4901 24.59 18.9801 24.71 19.3701 24.94L22.3601 26.71C23.2301 27.23 23.7801 27.23 23.9901 27.08C24.2001 26.93 24.3501 26.4 24.1301 25.42L23.4201 22.35C23.2301 21.52 23.5401 20.45 24.1401 19.84L26.6201 17.36C27.1101 16.87 27.3301 16.39 27.2301 16.06C27.1201 15.73 26.6601 15.46 25.9801 15.35L22.7901 14.82C22.0201 14.69 21.1801 14.07 20.8301 13.37L19.0701 9.85001C18.7501 9.21001 18.3501 8.83001 18.0001 8.83001C17.6501 8.83001 17.2501 9.21001 16.9401 9.85001L15.1701 13.37C14.8201 14.07 13.9801 14.69 13.2101 14.82L10.0301 15.35C9.35012 15.46 8.89012 15.73 8.78012 16.06C8.67012 16.39 8.90012 16.88 9.39012 17.36L11.8701 19.84C12.4701 20.44 12.7801 21.52 12.5901 22.35L11.8801 25.42C11.6501 26.41 11.8101 26.93 12.0201 27.08C12.2301 27.23 12.7701 27.22 13.6501 26.71L16.6401 24.94C17.0201 24.71 17.5101 24.59 18.0001 24.59Z" fill="#064BB4"/>
<rect x="0.5" y="0.5" width="35" height="35" rx="17.5" stroke="#E9EBED"/>
</svg>
