<svg width="48" height="49" viewBox="0 0 48 49" fill="none" xmlns="http://www.w3.org/2000/svg">
<circle cx="31" cy="35.5" r="8" fill="#BCFF5E"/>
<path fill-rule="evenodd" clip-rule="evenodd" d="M22.1603 15.2772C22.5058 14.5768 23.219 14.1334 24 14.1334C24.781 14.1334 25.4942 14.5768 25.8397 15.2772L27.3404 18.3194C27.6391 18.925 28.2168 19.3448 28.885 19.4419L32.2415 19.9297C33.0141 20.042 33.6559 20.5831 33.8973 21.3256C34.1386 22.068 33.9376 22.8831 33.3787 23.4282L30.9494 25.7977C30.4662 26.269 30.2458 26.9478 30.3599 27.6131L30.9333 30.9554C31.0653 31.725 30.7489 32.5027 30.1173 32.9617C29.4857 33.4206 28.6483 33.4813 27.9571 33.118L24.9544 31.54C24.3569 31.226 23.6431 31.226 23.0456 31.54L20.0429 33.1182C19.3517 33.4814 18.5143 33.4208 17.8826 32.9619C17.251 32.5029 16.9347 31.7251 17.0667 30.9556L17.64 27.6131C17.7541 26.9478 17.5337 26.269 17.0505 25.7977L14.6213 23.4282C14.0624 22.8831 13.8614 22.068 14.1027 21.3256C14.3441 20.5831 14.9859 20.042 15.7585 19.9297L19.115 19.4419C19.7832 19.3448 20.3609 18.925 20.6596 18.3194L22.1603 15.2772Z" stroke="#323232" stroke-width="2" stroke-linecap="round" stroke-linejoin="round"/>
<path d="M42.0653 18.6301L40.058 19.2824" stroke="#323232" stroke-width="2" stroke-linecap="round" stroke-linejoin="round"/>
<path d="M7.94194 29.7176L5.93454 30.3697" stroke="#323232" stroke-width="2" stroke-linecap="round" stroke-linejoin="round"/>
<path d="M24 43.5V41.3889" stroke="#323232" stroke-width="2" stroke-linecap="round" stroke-linejoin="round"/>
<path d="M24 5.49994V7.61106" stroke="#323232" stroke-width="2" stroke-linecap="round" stroke-linejoin="round"/>
<path d="M35.1568 39.8561L33.9172 38.1498" stroke="#323232" stroke-width="2" stroke-linecap="round" stroke-linejoin="round"/>
<path d="M12.8432 9.14388L14.0828 10.8501" stroke="#323232" stroke-width="2" stroke-linecap="round" stroke-linejoin="round"/>
<path d="M5.93454 18.6301L7.94194 19.2824" stroke="#323232" stroke-width="2" stroke-linecap="round" stroke-linejoin="round"/>
<path d="M42.0654 30.3698L40.058 29.7176" stroke="#323232" stroke-width="2" stroke-linecap="round" stroke-linejoin="round"/>
<path d="M35.1568 9.14388L33.9172 10.8501" stroke="#323232" stroke-width="2" stroke-linecap="round" stroke-linejoin="round"/>
<path d="M12.8432 39.8561L14.0828 38.1498" stroke="#323232" stroke-width="2" stroke-linecap="round" stroke-linejoin="round"/>
</svg>
