<svg width="32" height="32" viewBox="0 0 32 32" fill="none" xmlns="http://www.w3.org/2000/svg">
<circle cx="26" cy="28" r="4" fill="#BCFF5E"/>
<path d="M20 30.3334H12C4.75999 30.3334 1.66666 27.24 1.66666 20V12C1.66666 4.76002 4.75999 1.66669 12 1.66669H20C27.24 1.66669 30.3333 4.76002 30.3333 12V20C30.3333 27.24 27.24 30.3334 20 30.3334ZM12 3.66669C5.85332 3.66669 3.66666 5.85335 3.66666 12V20C3.66666 26.1467 5.85332 28.3334 12 28.3334H20C26.1467 28.3334 28.3333 26.1467 28.3333 20V12C28.3333 5.85335 26.1467 3.66669 20 3.66669H12Z" fill="white"/>
<path d="M14.3467 21.8267C13.7867 21.8267 13.2667 21.6933 12.8 21.4267C11.7333 20.8133 11.12 19.56 11.12 17.9733V14.0267C11.12 12.4533 11.7333 11.1867 12.8 10.5733C13.8667 9.95998 15.2533 10.0533 16.6267 10.8533L20.0533 12.8267C21.4133 13.6133 22.2 14.7733 22.2 16C22.2 17.2267 21.4133 18.3867 20.0533 19.1733L16.6267 21.1467C15.8533 21.6 15.0667 21.8267 14.3467 21.8267ZM14.36 12.1733C14.1467 12.1733 13.96 12.2133 13.8133 12.3067C13.3867 12.56 13.1333 13.1867 13.1333 14.0267V17.9733C13.1333 18.8133 13.3733 19.44 13.8133 19.6933C14.24 19.9467 14.9067 19.84 15.64 19.4133L19.0667 17.44C19.8 17.0133 20.2133 16.4933 20.2133 16C20.2133 15.5067 19.8 14.9733 19.0667 14.56L15.64 12.5867C15.16 12.3067 14.72 12.1733 14.36 12.1733Z" fill="white"/>
</svg>
