<svg width="40" height="40" viewBox="0 0 40 40" fill="none" xmlns="http://www.w3.org/2000/svg">
<path d="M26.707 16.6081C26.6279 16.3103 26.472 16.0385 26.255 15.8198C26.0379 15.6012 25.7672 15.4434 25.47 15.3621C24.379 15.0681 20 15.0681 20 15.0681C20 15.0681 15.622 15.0681 14.53 15.3621C14.2328 15.4436 13.9621 15.6015 13.7449 15.8201C13.5277 16.0387 13.3715 16.3104 13.292 16.6081C13 17.7071 13 20.0001 13 20.0001C13 20.0001 13 22.2931 13.292 23.3921C13.3713 23.6898 13.5274 23.9615 13.7447 24.18C13.9619 24.3985 14.2327 24.5561 14.53 24.6371C15.622 24.9321 20 24.9321 20 24.9321C20 24.9321 24.378 24.9321 25.469 24.6371C25.7663 24.5564 26.0372 24.3989 26.2543 24.1803C26.4714 23.9618 26.6272 23.69 26.706 23.3921C27 22.2931 27 20.0001 27 20.0001C27 20.0001 27 17.7071 26.707 16.6081ZM18.568 22.0821V17.9181L22.228 20.0001L18.568 22.0821Z" fill="white"/>
<rect x="0.5" y="0.5" width="39" height="39" rx="19.5" stroke="white" stroke-opacity="0.12"/>
</svg>
