<svg width="50" height="50" viewBox="0 0 50 50" fill="none" xmlns="http://www.w3.org/2000/svg">
<circle cx="33" cy="41" r="8" fill="#BCFF5E"/>
<path d="M32.1836 29.768L32.7158 28.9676C34.9586 25.6053 39.174 24.1598 43.0081 25.4382" stroke="#323232" stroke-width="2" stroke-linecap="round" stroke-linejoin="round"/>
<path d="M21.1286 26.5866L23.5296 14.6136L26.1507 15.9242C27.124 16.4101 28.3066 16.0984 28.9139 15.1959L31.2028 11.7604C31.7743 10.9018 31.6613 9.75939 30.9327 9.02931L28.0515 6.14811C26.7156 4.81189 24.5813 4.71472 23.1295 5.92402C16.3124 11.6044 11.2141 19.073 8.40735 27.491L7.20685 31.0645C6.60802 32.8697 7.2574 34.8544 8.80752 35.9565L11.8708 38.1454C17.7823 42.369 25.4378 43.2912 32.1833 40.5925L34.3482 44.9223" stroke="#323232" stroke-width="2" stroke-linecap="round" stroke-linejoin="round"/>
<path d="M32.1828 27.6011C28.2497 24.9798 23.1264 24.9798 19.1934 27.6011" stroke="#323232" stroke-width="2" stroke-linecap="round" stroke-linejoin="round"/>
</svg>
