<svg width="32" height="32" viewBox="0 0 32 32" fill="none" xmlns="http://www.w3.org/2000/svg">
<path d="M19.2398 25.0932C18.9865 25.0932 18.7332 24.9999 18.5332 24.7999C18.1465 24.4132 18.1465 23.7732 18.5332 23.3866L25.9198 15.9999L18.5332 8.61325C18.1465 8.22658 18.1465 7.58658 18.5332 7.19991C18.9198 6.81325 19.5598 6.81325 19.9465 7.19991L28.0398 15.2932C28.4265 15.6799 28.4265 16.3199 28.0398 16.7066L19.9465 24.7999C19.7465 24.9999 19.4932 25.0932 19.2398 25.0932Z" fill="#1C1C1E"/>
<path d="M27.107 17H4.66699C4.12033 17 3.66699 16.5467 3.66699 16C3.66699 15.4533 4.12033 15 4.66699 15H27.107C27.6537 15 28.107 15.4533 28.107 16C28.107 16.5467 27.6537 17 27.107 17Z" fill="#1C1C1E"/>
</svg>
