<svg width="33" height="33" viewBox="0 0 33 33" fill="none" xmlns="http://www.w3.org/2000/svg">
<path d="M12.8358 6.94508C13.0891 6.94585 13.3422 7.03995 13.5415 7.24055C13.927 7.62839 13.9251 8.26838 13.5373 8.65388L6.12825 16.0181L13.4925 23.4271C13.878 23.815 13.8761 24.455 13.4882 24.8405C13.1004 25.226 12.4604 25.224 12.0749 24.8362L4.00612 16.7184C3.62063 16.3305 3.62256 15.6905 4.0104 15.305L12.1282 7.23627C12.3288 7.03688 12.5824 6.94431 12.8358 6.94508Z" fill="#1C1C1E"/>
<path d="M4.94507 15.0147L27.385 15.0827C27.9316 15.0843 28.3836 15.539 28.3819 16.0857C28.3803 16.6324 27.9256 17.0843 27.3789 17.0827L4.93901 17.0147C4.39235 17.013 3.94039 16.5583 3.94205 16.0117C3.9437 15.465 4.39841 15.013 4.94507 15.0147Z" fill="#1C1C1E"/>
</svg>
