<svg width="36" height="36" viewBox="0 0 36 36" fill="none" xmlns="http://www.w3.org/2000/svg">
<g clip-path="url(#clip0_134_2339)">
<path d="M15.7102 17.29C15.5219 17.1017 15.2665 16.9959 15.0002 16.9959C14.7339 16.9959 14.4785 17.1017 14.2902 17.29C14.1019 17.4783 13.9961 17.7337 13.9961 18C13.9961 18.2663 14.1019 18.5217 14.2902 18.71L17.2902 21.71C17.3836 21.8027 17.4944 21.876 17.6163 21.9258C17.7381 21.9755 17.8686 22.0008 18.0002 22C18.1371 21.9956 18.2716 21.9632 18.3955 21.9047C18.5193 21.8463 18.6299 21.763 18.7202 21.66L25.7202 13.66C25.8818 13.4593 25.9597 13.204 25.9377 12.9473C25.9157 12.6905 25.7955 12.4522 25.602 12.282C25.4086 12.1118 25.1569 12.0228 24.8995 12.0336C24.642 12.0444 24.3987 12.1542 24.2202 12.34L18.0002 19.54L15.7102 17.29Z" fill="#00C566"/>
<path d="M26.9998 17C26.7346 17 26.4802 17.1054 26.2927 17.2929C26.1052 17.4804 25.9998 17.7348 25.9998 18C25.9998 20.1217 25.157 22.1566 23.6567 23.6569C22.1564 25.1571 20.1215 26 17.9998 26C16.4199 25.9993 14.8756 25.5308 13.5616 24.6535C12.2476 23.7763 11.2227 22.5297 10.6163 21.0708C10.0099 19.6119 9.84896 18.0061 10.1539 16.4559C10.4588 14.9057 11.216 13.4805 12.3298 12.36C13.0705 11.6094 13.9535 11.014 14.9271 10.6088C15.9006 10.2036 16.9453 9.99661 17.9998 10C18.6393 10.004 19.2764 10.0778 19.8998 10.22C20.0303 10.2604 20.1676 10.2736 20.3034 10.2588C20.4392 10.244 20.5705 10.2016 20.6892 10.1342C20.808 10.0667 20.9116 9.97567 20.9938 9.86662C21.076 9.75757 21.135 9.63284 21.1672 9.50011C21.1994 9.36739 21.204 9.22948 21.1808 9.0949C21.1576 8.96032 21.1071 8.83191 21.0324 8.71759C20.9577 8.60327 20.8604 8.50547 20.7464 8.43021C20.6324 8.35495 20.5043 8.30383 20.3698 8.28C19.593 8.09724 18.7979 8.00331 17.9998 8C16.0242 8.01026 14.0958 8.60552 12.4581 9.71065C10.8204 10.8158 9.54678 12.3813 8.79793 14.2095C8.04908 16.0378 7.85857 18.0469 8.25045 19.9834C8.64232 21.9198 9.59902 23.6968 10.9998 25.09C12.8565 26.9475 15.3735 27.9939 17.9998 28C20.652 28 23.1955 26.9464 25.0709 25.0711C26.9462 23.1957 27.9998 20.6522 27.9998 18C27.9998 17.7348 27.8945 17.4804 27.7069 17.2929C27.5194 17.1054 27.265 17 26.9998 17Z" fill="#00C566"/>
</g>
<rect x="0.5" y="0.5" width="35" height="35" rx="17.5" stroke="#E9EBED"/>
<defs>
<clipPath id="clip0_134_2339">
<rect width="24" height="24" fill="white" transform="translate(6 6)"/>
</clipPath>
</defs>
</svg>
