<svg width="32" height="32" viewBox="0 0 32 32" fill="none" xmlns="http://www.w3.org/2000/svg">
<circle cx="27" cy="28" r="4" fill="#BCFF5E"/>
<path d="M19.9603 30.3334H11.9603C4.72029 30.3334 1.62695 27.24 1.62695 20V12C1.62695 4.76002 4.72029 1.66669 11.9603 1.66669H19.9603C27.2003 1.66669 30.2936 4.76002 30.2936 12V20C30.2936 27.24 27.2136 30.3334 19.9603 30.3334ZM11.9603 3.66669C5.81362 3.66669 3.62695 5.85335 3.62695 12V20C3.62695 26.1467 5.81362 28.3334 11.9603 28.3334H19.9603C26.107 28.3334 28.2936 26.1467 28.2936 20V12C28.2936 5.85335 26.107 3.66669 19.9603 3.66669H11.9603Z" fill="white"/>
<path d="M15.2667 24.08C14.9467 24.08 14.1733 23.96 13.72 22.8L12.2 18.96C11.9867 18.4133 11.2267 17.9067 10.6533 17.9067L2.65332 17.9333C2.10665 17.9333 1.65332 17.4933 1.65332 16.9333C1.65332 16.3867 2.09332 15.9333 2.65332 15.9333L10.6533 15.9067H10.6667C12.0667 15.9067 13.56 16.92 14.08 18.2267L15.2933 21.2933L18.04 14.3333C18.4533 13.2933 19.1867 13.1467 19.4933 13.12C19.8 13.1067 20.5467 13.1733 21.0667 14.16L22.4533 16.7867C22.6933 17.24 23.4133 17.68 23.9333 17.68H29.3467C29.8933 17.68 30.3467 18.1333 30.3467 18.68C30.3467 19.2267 29.8933 19.68 29.3467 19.68H23.9333C22.6667 19.68 21.28 18.84 20.6933 17.72L19.6533 15.7467L16.8533 22.8C16.36 23.9467 15.5733 24.08 15.2667 24.08Z" fill="white"/>
</svg>
