<svg width="40" height="40" viewBox="0 0 40 40" fill="none" xmlns="http://www.w3.org/2000/svg">
<path fill-rule="evenodd" clip-rule="evenodd" d="M16.08 26.9299H13.07V17.2699H16.08V26.9299ZM14.54 16.0799C13.63 16.0799 13 15.4499 13 14.6099C13 13.7699 13.63 13.1399 14.61 13.1399C15.59 13.1399 16.15 13.7699 16.15 14.6099C16.15 15.4499 15.59 16.0799 14.54 16.0799ZM27 26.9299H23.99V21.6099C23.99 20.3499 23.57 19.5099 22.45 19.5099C21.61 19.5099 21.12 20.0699 20.91 20.6299C20.84 20.8399 20.84 21.1199 20.84 21.3999V26.9299H17.83V20.3499C17.83 19.1599 17.76 18.1799 17.76 17.2699H20.35L20.49 18.5999H20.56C20.98 17.9699 21.89 17.0599 23.5 17.0599C25.46 17.0599 26.93 18.3899 26.93 21.1899V26.9299H27Z" fill="white"/>
<rect x="0.5" y="0.5" width="39" height="39" rx="19.5" stroke="white" stroke-opacity="0.12"/>
</svg>
