<svg width="40" height="40" viewBox="0 0 40 40" fill="none" xmlns="http://www.w3.org/2000/svg">
<path fill-rule="evenodd" clip-rule="evenodd" d="M14.0579 30.6024C15.0099 30.6024 15.7846 31.3757 15.7846 32.3277C15.7846 33.2797 15.0099 34.0544 14.0579 34.0544C13.1059 34.0544 12.3326 33.2797 12.3326 32.3277C12.3326 31.3757 13.1059 30.6024 14.0579 30.6024ZM29.0983 30.6024C30.0517 30.6024 30.8263 31.3757 30.8263 32.3277C30.8263 33.2797 30.0517 34.0544 29.0983 34.0544C28.1463 34.0544 27.373 33.2797 27.373 32.3277C27.373 31.3757 28.1463 30.6024 29.0983 30.6024ZM8.35687 8.01253L11.1302 8.49253C11.5769 8.57119 11.9169 8.94186 11.9555 9.39519L12.2689 13.1299L13.434 13.1304C13.6241 13.1304 13.8122 13.1305 13.9984 13.1306L16.1374 13.1316C16.3079 13.1317 16.4765 13.1318 16.6433 13.1319L19.0051 13.1332C19.1535 13.1333 19.3001 13.1334 19.4449 13.1334L21.1 13.1345C21.2312 13.1346 21.3606 13.1347 21.4884 13.1348L22.9442 13.1358C23.0591 13.1359 23.1725 13.136 23.2843 13.1361L24.5536 13.1372C24.6534 13.1373 24.7518 13.1374 24.8487 13.1375L25.6829 13.1383C25.7715 13.1384 25.8586 13.1385 25.9444 13.1386L26.9105 13.1397C26.9858 13.1398 27.0599 13.1399 27.1327 13.14L27.9484 13.1411C28.0117 13.1412 28.0737 13.1413 28.1347 13.1414L28.6531 13.1423C28.7074 13.1424 28.7607 13.1425 28.8129 13.1426L29.3904 13.1437C29.4345 13.1438 29.4777 13.1439 29.52 13.144L29.8754 13.1449C29.9122 13.145 29.9481 13.1451 29.9831 13.1452L30.3641 13.1464C30.3927 13.1465 30.4205 13.1466 30.4475 13.1467L30.6712 13.1476C30.694 13.1477 30.716 13.1478 30.7374 13.1479L30.9637 13.1492C30.9802 13.1493 30.996 13.1494 31.0113 13.1495L31.1347 13.1504C31.1469 13.1505 31.1585 13.1506 31.1697 13.1507L31.2585 13.1517C31.2671 13.1518 31.2753 13.1519 31.2831 13.152L31.3435 13.153C31.3492 13.1531 31.3546 13.1532 31.3596 13.1533L31.3979 13.1542C31.4014 13.1544 31.4046 13.1545 31.4076 13.1546L31.4353 13.1559C31.437 13.156 31.4386 13.1561 31.4401 13.1562C31.4531 13.1574 31.455 13.1576 31.4569 13.1579C32.1995 13.2659 32.8529 13.6539 33.2982 14.2512C33.7435 14.8472 33.9302 15.5819 33.8235 16.3179L32.5582 25.0619C32.3195 26.7259 30.8742 27.9805 29.1942 27.9805H14.6329C12.8769 27.9805 11.3902 26.6099 11.2475 24.8565L10.0262 10.3312L8.01687 9.98453C7.47154 9.88853 7.10754 9.37253 7.20087 8.82719C7.29687 8.28186 7.82354 7.92719 8.35687 8.01253ZM13.1665 15.1303L12.4369 15.1299L13.2409 24.6925C13.2995 25.4285 13.9009 25.9805 14.6355 25.9805H29.1915C29.8862 25.9805 30.4795 25.4632 30.5782 24.7765L31.8449 16.0312C31.8742 15.8232 31.8222 15.6152 31.6955 15.4472C31.5702 15.2779 31.3862 15.1685 31.1782 15.1392C31.1686 15.1396 31.1456 15.1399 31.1098 15.1402L30.9648 15.141C30.9344 15.1412 30.9011 15.1413 30.8648 15.1414L30.1094 15.1425C30.0457 15.1426 29.9794 15.1426 29.9107 15.1426L28.1347 15.1426C28.0356 15.1425 27.9347 15.1425 27.8319 15.1425L25.8051 15.1412C25.6836 15.1411 25.5609 15.141 25.4369 15.1409L24.29 15.14C24.1594 15.1399 24.0278 15.1398 23.8953 15.1397L22.6805 15.1386C22.5433 15.1385 22.4055 15.1384 22.2671 15.1383L21.4303 15.1375C21.2899 15.1374 21.1491 15.1372 21.0079 15.1371L19.731 15.1359C19.5886 15.1358 19.4462 15.1356 19.3037 15.1355L18.4495 15.1347C18.3073 15.1346 18.1653 15.1344 18.0236 15.1343L17.1767 15.1335C17.0362 15.1334 16.8961 15.1333 16.7566 15.1332L15.5159 15.1321C15.38 15.132 15.2448 15.1319 15.1105 15.1318L13.5426 15.1306C13.4161 15.1305 13.2907 15.1304 13.1665 15.1303ZM27.0501 18.0583C27.6021 18.0583 28.0501 18.5063 28.0501 19.0583C28.0501 19.6103 27.6021 20.0583 27.0501 20.0583H23.3541C22.8007 20.0583 22.3541 19.6103 22.3541 19.0583C22.3541 18.5063 22.8007 18.0583 23.3541 18.0583H27.0501Z" fill="#1C1C1E"/>
<circle cx="34" cy="14" r="6" fill="#FF4747"/>
</svg>
