<svg width="56" height="56" viewBox="0 0 56 56" fill="none" xmlns="http://www.w3.org/2000/svg">
<path d="M18.877 27.1368H7.93366C8.12033 16.2401 10.267 14.4434 16.9637 10.4768C17.7337 10.0101 17.9903 9.0301 17.5237 8.23676C17.0803 7.46676 16.077 7.2101 15.307 7.67676C7.42033 12.3434 4.66699 15.1901 4.66699 28.7468V41.3234C4.66699 45.3134 7.91033 48.5334 11.877 48.5334H18.877C22.9837 48.5334 26.087 45.4301 26.087 41.3234V34.3234C26.087 30.2401 22.9837 27.1368 18.877 27.1368Z" fill="#E9EBED"/>
<path d="M44.123 27.1368H33.1796C33.3663 16.2401 35.513 14.4434 42.2096 10.4768C42.9796 10.0101 43.2363 9.0301 42.7696 8.23676C42.303 7.46676 41.323 7.2101 40.5296 7.67676C32.643 12.3434 29.8896 15.1901 29.8896 28.7701V41.3468C29.8896 45.3368 33.133 48.5568 37.0996 48.5568H44.0996C48.2063 48.5568 51.3096 45.4534 51.3096 41.3468V34.3468C51.333 30.2401 48.2296 27.1368 44.123 27.1368Z" fill="#E9EBED"/>
</svg>
