<svg width="48" height="48" viewBox="0 0 48 48" fill="none" xmlns="http://www.w3.org/2000/svg">
<circle cx="22" cy="40" r="8" fill="#BCFF5E"/>
<path fill-rule="evenodd" clip-rule="evenodd" d="M27.9561 14.7689L33.2304 20.0433L20.0431 33.2307L14.7687 27.9563L27.9561 14.7689Z" stroke="#323232" stroke-width="2" stroke-linecap="round" stroke-linejoin="round"/>
<path fill-rule="evenodd" clip-rule="evenodd" d="M7.51676 22.0216C7.88073 21.6577 8.47084 21.6577 8.8348 22.0216L25.9785 39.1653C26.3425 39.5293 26.3425 40.1194 25.9785 40.4834L23.3408 43.1211C22.9768 43.4851 22.3867 43.4851 22.0227 43.1211L4.87902 25.9774C4.51505 25.6135 4.51505 25.0233 4.87902 24.6594L7.51676 22.0216Z" stroke="#323232" stroke-width="2" stroke-linecap="round" stroke-linejoin="round"/>
<path fill-rule="evenodd" clip-rule="evenodd" d="M7.51676 29.9351C7.88073 29.5711 8.47084 29.5711 8.8348 29.9351L18.0669 39.1672C18.4309 39.5312 18.4309 40.1213 18.0669 40.4853L15.4292 43.123C15.0652 43.487 14.4751 43.487 14.1112 43.123L4.87902 33.8909C4.51505 33.5269 4.51505 32.9368 4.87902 32.5728L7.51676 29.9351Z" stroke="#323232" stroke-width="2" stroke-linecap="round" stroke-linejoin="round"/>
<path fill-rule="evenodd" clip-rule="evenodd" d="M40.4832 25.9798C40.1193 26.3437 39.5292 26.3437 39.1652 25.9798L22.0215 8.83606C21.6575 8.47209 21.6575 7.88198 22.0215 7.51801L24.6592 4.88027C25.0232 4.5163 25.6133 4.5163 25.9773 4.88027L43.121 22.024C43.485 22.388 43.485 22.9781 43.121 23.342L40.4832 25.9798Z" stroke="#323232" stroke-width="2" stroke-linecap="round" stroke-linejoin="round"/>
<path fill-rule="evenodd" clip-rule="evenodd" d="M40.4842 18.0649C40.1203 18.4289 39.5301 18.4289 39.1662 18.0649L29.934 8.83278C29.5701 8.46881 29.5701 7.8787 29.934 7.51473L32.5718 4.87699C32.9357 4.51302 33.5259 4.51302 33.8898 4.87699L43.122 14.1091C43.4859 14.4731 43.4859 15.0632 43.122 15.4272L40.4842 18.0649Z" stroke="#323232" stroke-width="2" stroke-linecap="round" stroke-linejoin="round"/>
</svg>
